# xmcd
# 
# Track frame offsets:
#     150
#     22325
#     39935
# 
# Disc length: 810
# 
# Revision: 11
# Processed by: cddbd v1.5.2PL0 Copyright (c) Steve Scherf et al.
# Submitted via: BonkEnc v1.0.8
# 
DISCID=1e032803
DTITLE=YUKI - 2人のストーリー
DYEAR=2010
DGENRE=J-pop
TTITLE0=2人のストーリー
TTITLE1=あの娘になりたい
TTITLE2=朝が来る～Tune in to a new world ver.～
EXTD=YEAR: 2010
EXTT0=
EXTT1=
EXTT2=
PLAYORDER=
